<svg width="29" height="29" viewBox="0 0 29 29" fill="none" xmlns="http://www.w3.org/2000/svg">
<path d="M0.75 14.5826C0.750774 17.8771 1.9194 21.0633 4.04582 23.5685C6.17225 26.0737 9.11703 27.7337 12.3509 28.25V18.5809H8.8625V14.5826H12.355V11.539C12.2779 10.8266 12.3576 10.1059 12.5885 9.42799C12.8194 8.75012 13.1958 8.13171 13.691 7.61669C14.1862 7.10168 14.788 6.70268 15.4537 6.44806C16.1194 6.19343 16.8327 6.08941 17.5429 6.14338C18.5741 6.15998 19.6054 6.25268 20.6229 6.42008V9.82205H18.8849C18.5895 9.78312 18.2892 9.81149 18.0061 9.90504C17.7231 9.99859 17.4646 10.1549 17.2497 10.3625C17.0348 10.5701 16.869 10.8237 16.7646 11.1044C16.6601 11.3851 16.6197 11.6859 16.6464 11.9844V14.5826H20.4565L19.8474 18.5822H16.6464V28.25C19.2419 27.8373 21.6654 26.6849 23.6302 24.9293C25.595 23.1737 27.0187 20.8885 27.7327 18.344C28.4467 15.7996 28.4211 13.1026 27.659 10.5724C26.8969 8.04211 25.4302 5.78455 23.4325 4.06698C21.4348 2.3494 18.9898 1.24375 16.387 0.880909C13.7842 0.51807 11.1325 0.913246 8.74597 2.01965C6.35943 3.12605 4.33795 4.89735 2.92086 7.12382C1.50377 9.3503 0.750417 11.9387 0.75 14.5826Z" fill="#F6C900"/>
</svg>
