<svg width="29" height="29" viewBox="0 0 29 29" fill="none" xmlns="http://www.w3.org/2000/svg">
<path fill-rule="evenodd" clip-rule="evenodd" d="M8.83125 0.8325C10.2975 0.765 10.765 0.75 14.5 0.75C18.235 0.75 18.7025 0.76625 20.1675 0.8325C21.6325 0.89875 22.6325 1.1325 23.5075 1.47125C24.4237 1.8175 25.255 2.35875 25.9425 3.05875C26.6425 3.745 27.1825 4.575 27.5275 5.4925C27.8675 6.3675 28.1 7.3675 28.1675 8.83C28.235 10.2987 28.25 10.7662 28.25 14.5C28.25 18.235 28.2337 18.7025 28.1675 20.1687C28.1012 21.6312 27.8675 22.6312 27.5275 23.5062C27.1825 24.4239 26.6416 25.2552 25.9425 25.9425C25.255 26.6425 24.4237 27.1825 23.5075 27.5275C22.6325 27.8675 21.6325 28.1 20.17 28.1675C18.7025 28.235 18.235 28.25 14.5 28.25C10.765 28.25 10.2975 28.2337 8.83125 28.1675C7.36875 28.1012 6.36875 27.8675 5.49375 27.5275C4.57615 27.1825 3.74478 26.6416 3.0575 25.9425C2.35797 25.2558 1.81664 24.4249 1.47125 23.5075C1.1325 22.6325 0.9 21.6325 0.8325 20.17C0.765 18.7012 0.75 18.2337 0.75 14.5C0.75 10.765 0.76625 10.2975 0.8325 8.8325C0.89875 7.3675 1.1325 6.3675 1.47125 5.4925C1.81715 4.5751 2.3589 3.74414 3.05875 3.0575C3.74505 2.35813 4.57559 1.8168 5.4925 1.47125C6.3675 1.1325 7.3675 0.9 8.83 0.8325H8.83125ZM20.0562 3.3075C18.6062 3.24125 18.1712 3.2275 14.5 3.2275C10.8287 3.2275 10.3937 3.24125 8.94375 3.3075C7.6025 3.36875 6.875 3.5925 6.39 3.78125C5.74875 4.03125 5.29 4.3275 4.80875 4.80875C4.35256 5.25256 4.00148 5.79285 3.78125 6.39C3.5925 6.875 3.36875 7.6025 3.3075 8.94375C3.24125 10.3937 3.2275 10.8287 3.2275 14.5C3.2275 18.1712 3.24125 18.6062 3.3075 20.0562C3.36875 21.3975 3.5925 22.125 3.78125 22.61C4.00125 23.2062 4.3525 23.7475 4.80875 24.1912C5.2525 24.6475 5.79375 24.9987 6.39 25.2187C6.875 25.4075 7.6025 25.6312 8.94375 25.6925C10.3937 25.7587 10.8275 25.7725 14.5 25.7725C18.1725 25.7725 18.6062 25.7587 20.0562 25.6925C21.3975 25.6312 22.125 25.4075 22.61 25.2187C23.2512 24.9687 23.71 24.6725 24.1912 24.1912C24.6475 23.7475 24.9987 23.2062 25.2187 22.61C25.4075 22.125 25.6312 21.3975 25.6925 20.0562C25.7587 18.6062 25.7725 18.1712 25.7725 14.5C25.7725 10.8287 25.7587 10.3937 25.6925 8.94375C25.6312 7.6025 25.4075 6.875 25.2187 6.39C24.9687 5.74875 24.6725 5.29 24.1912 4.80875C23.7474 4.35259 23.2071 4.00151 22.61 3.78125C22.125 3.5925 21.3975 3.36875 20.0562 3.3075ZM12.7437 18.7387C13.7246 19.147 14.8167 19.2021 15.8337 18.8946C16.8506 18.5872 17.7292 17.9361 18.3195 17.0528C18.9098 16.1695 19.1751 15.1086 19.0701 14.0514C18.965 12.9942 18.4963 12.0062 17.7437 11.2562C17.264 10.7768 16.684 10.4098 16.0454 10.1814C15.4068 9.9531 14.7255 9.8692 14.0506 9.93577C13.3757 10.0023 12.7239 10.2177 12.1423 10.5664C11.5606 10.9151 11.0634 11.3884 10.6866 11.9523C10.3098 12.5162 10.0627 13.1566 9.96314 13.8274C9.86355 14.4983 9.91394 15.1829 10.1107 15.8319C10.3074 16.4809 10.6456 17.0783 11.1009 17.5809C11.5562 18.0835 12.1173 18.479 12.7437 18.7387ZM9.5025 9.5025C10.1588 8.84622 10.9379 8.32563 11.7954 7.97045C12.6528 7.61527 13.5719 7.43247 14.5 7.43247C15.4281 7.43247 16.3472 7.61527 17.2046 7.97045C18.0621 8.32563 18.8412 8.84622 19.4975 9.5025C20.1538 10.1588 20.6744 10.9379 21.0295 11.7954C21.3847 12.6528 21.5675 13.5719 21.5675 14.5C21.5675 15.4281 21.3847 16.3472 21.0295 17.2046C20.6744 18.0621 20.1538 18.8412 19.4975 19.4975C18.1721 20.8229 16.3744 21.5675 14.5 21.5675C12.6256 21.5675 10.8279 20.8229 9.5025 19.4975C8.17708 18.1721 7.43247 16.3744 7.43247 14.5C7.43247 12.6256 8.17708 10.8279 9.5025 9.5025ZM23.135 8.485C23.2976 8.33159 23.4278 8.1471 23.5179 7.94247C23.6079 7.73783 23.656 7.51721 23.6593 7.29366C23.6625 7.07011 23.6209 6.84818 23.5369 6.64101C23.4528 6.43384 23.328 6.24564 23.1699 6.08755C23.0119 5.92946 22.8237 5.8047 22.6165 5.72065C22.4093 5.6366 22.1874 5.59497 21.9638 5.59823C21.7403 5.60149 21.5197 5.64957 21.315 5.73962C21.1104 5.82967 20.9259 5.95987 20.7725 6.1225C20.4741 6.43879 20.3108 6.8589 20.3171 7.29366C20.3235 7.72842 20.499 8.1436 20.8064 8.45105C21.1139 8.75851 21.5291 8.93404 21.9638 8.94037C22.3986 8.94671 22.8187 8.78336 23.135 8.485Z" fill="#F6C900"/>
</svg>
