<svg width="25" height="25" viewBox="0 0 25 25" fill="none" xmlns="http://www.w3.org/2000/svg">
<path d="M21.2986 21.3042H17.5972V15.5028C17.5972 14.1194 17.5694 12.3389 15.6667 12.3389C13.7375 12.3389 13.4431 13.8444 13.4431 15.4014V21.3042H9.74028V9.375H13.2958V11H13.3444C13.8417 10.0639 15.05 9.07361 16.8556 9.07361C20.6056 9.07361 21.3 11.5431 21.3 14.7556V21.3042H21.2986ZM5.55972 7.74305C5.27716 7.74342 4.9973 7.68801 4.7362 7.58001C4.47509 7.472 4.23787 7.31353 4.03813 7.11366C3.8384 6.91379 3.68007 6.67647 3.57224 6.41529C3.4644 6.15412 3.40917 5.87423 3.40972 5.59167C3.41 5.16644 3.53636 4.75084 3.77283 4.39743C4.00931 4.04401 4.34527 3.76866 4.73824 3.60618C5.1312 3.44371 5.56352 3.40141 5.98053 3.48464C6.39753 3.56787 6.78049 3.77288 7.08098 4.07376C7.38147 4.37464 7.58599 4.75786 7.66868 5.17497C7.75137 5.59209 7.70851 6.02435 7.54553 6.41711C7.38255 6.80986 7.10676 7.14547 6.75304 7.38149C6.39932 7.6175 5.98356 7.74333 5.55833 7.74305H5.55972ZM7.41528 21.3042H3.70278V9.375H7.41667V21.3042H7.41528ZM23.1528 0H1.84583C0.823611 0 0 0.805555 0 1.80139V23.1986C0 24.1944 0.825 25 1.84444 25H23.1472C24.1667 25 25 24.1944 25 23.1986V1.80139C25 0.805555 24.1667 0 23.1472 0H23.1514H23.1528Z" fill="#F6C900"/>
</svg>
