<svg width="48" height="48" viewBox="0 0 48 48" fill="none" xmlns="http://www.w3.org/2000/svg">
<path d="M28.5825 42.8754C39.3065 40.3761 45.9483 29.7652 43.4175 19.1751C40.8866 8.58507 30.1414 2.0262 19.4175 4.52546C8.69349 7.02473 2.05167 17.6357 4.58254 28.2258C7.11341 38.8158 17.8586 45.3747 28.5825 42.8754Z" fill="#F6C900"/>
<path d="M29.0073 12.501L29.3168 12.5238C29.2144 12.5086 29.1109 12.501 29.0073 12.501Z" fill="#404040"/>
<path d="M25.0175 20.9753C24.9901 21.0008 24.9649 21.0286 24.9424 21.0584L25.0175 20.9753Z" fill="#404040"/>
<path d="M23.3292 17.0348C23.3933 17.0155 23.4609 16.9979 23.5285 16.9804C23.5961 16.9628 23.7063 16.9329 23.7882 16.9136C23.87 16.8943 23.9234 16.8838 23.991 16.8715C24.0586 16.8592 24.1688 16.8363 24.2702 16.8205L24.4784 16.7924C24.7944 16.7505 25.113 16.7294 25.4319 16.7292C25.6222 16.7292 25.8054 16.7292 25.9833 16.7467C25.5743 16.6905 25.1618 16.6624 24.7488 16.6624C24.1041 16.6597 23.4616 16.737 22.8365 16.8925C20.5346 17.2439 19.0599 18.2821 18.2114 19.1376C17.0338 20.3075 16.3614 21.8024 16.3614 23.2359V26.5841C16.3614 28.5445 15.8135 28.7342 15.8063 28.7412L15.6089 28.8765L17.1636 28.8554C17.3789 28.8554 17.5781 28.8554 17.7738 28.8466H18.0335L18.0477 28.8343H18.0584L18.078 28.815L18.0869 28.8045L18.1135 28.7746V28.7623L18.142 28.7254C18.142 28.7254 18.142 28.7254 18.142 28.7131C18.1967 28.6299 18.2421 28.5409 18.2772 28.4479L17.7631 28.4321C17.9196 28.0807 18.0709 27.7013 18.0709 26.6122V23.2446C18.0709 21.8516 18.7077 20.3356 19.7697 19.192C20.3075 18.6124 20.9492 18.136 21.6624 17.7867C22.042 17.5454 22.4456 17.343 22.8667 17.1824L23.0446 17.1174C23.1602 17.0928 23.2438 17.0629 23.3292 17.0348ZM19.4602 18.8864C18.3235 20.116 17.434 21.7339 17.434 23.2359V26.5841C17.434 27.8594 17.2561 28.2301 17.1476 28.3671C16.9235 28.353 16.6371 28.3513 16.6317 28.3548C16.8452 28.1317 16.8096 27.9156 16.8577 27.6187C16.9061 27.2778 16.9269 26.9336 16.9199 26.5893L16.9004 23.4273C16.9004 21.495 18.0495 19.8437 19.6523 18.6843C19.5847 18.7581 19.5206 18.8231 19.4602 18.8881V18.8864Z" fill="#404040"/>
<path d="M19.7874 8.69952C20.8939 8.2995 22.0417 8.02143 23.21 7.87037L23.4679 7.837L23.9287 7.79132C24.0745 7.77903 24.2222 7.77024 24.368 7.76146C24.4588 7.76146 24.5459 7.74916 24.6384 7.74565C24.8697 7.73511 25.1027 7.72984 25.3375 7.72984H25.5866C24.4623 7.6789 23.3025 7.7193 23.2473 7.7193C14.296 7.7193 6.98305 14.8478 6.98305 23.6874C6.97402 25.7793 7.38931 27.8519 8.20444 29.7828C9.01957 31.7137 10.218 33.4639 11.7291 34.93C14.7847 37.9002 18.9065 39.5555 23.194 39.5342H23.3719C23.0161 39.4921 22.6603 39.4359 22.3045 39.3709H22.3152L22.0484 39.3164L21.8829 39.283L21.5894 39.2163L21.4293 39.1776C19.5528 38.7153 17.7762 37.922 16.1852 36.836C15.1599 36.2384 14.2094 35.5238 13.3532 34.7069C10.3398 31.8207 8.60717 27.9719 8.60717 23.798C8.60717 19.9035 10.2242 15.872 12.8943 12.9981C14.7767 11.0005 17.1518 9.51936 19.7874 8.69952ZM9.31161 17.7376C8.44057 19.6409 7.99638 21.7077 8.00947 23.7963C8.00947 28.0913 9.8933 32.1088 12.9903 35.0776C14.9887 36.9653 17.453 38.3032 20.1379 38.9581C17.1275 38.3882 14.3563 36.9483 12.1756 34.8211C10.6832 33.3684 9.50137 31.6345 8.70017 29.7223C7.89897 27.8101 7.49472 25.7585 7.51138 23.6891C7.51138 15.619 13.7179 9.00167 21.6303 8.01266C18.1775 8.61169 14.8582 10.1892 12.4833 12.7398C11.1047 14.2242 10.1459 15.886 9.31161 17.7376Z" fill="#404040"/>
<path d="M30.3718 12.6274C29.9626 12.5659 29.5517 12.515 29.1266 12.4904C29.0901 12.4887 29.0535 12.4922 29.0181 12.501C29.4663 12.5291 29.92 12.5712 30.3718 12.6274Z" fill="#404040"/>
<path d="M31.2471 28.7888C31.1689 28.7888 31.0906 28.7765 31.0141 28.7677C30.9376 28.7589 30.8771 28.7501 30.8095 28.7396L30.7188 28.7273C30.5267 28.6943 30.338 28.6443 30.1549 28.578L30.0677 28.5428C30.0072 28.5182 29.945 28.4919 29.8898 28.462C29.6397 28.3394 29.4114 28.1774 29.2139 27.9825C29.0181 27.8732 28.8385 27.7378 28.6802 27.5802C27.8993 26.802 27.8993 26.0853 27.8993 24.9751V23.2447C27.8806 22.7722 27.7209 22.3157 27.4403 21.9325C27.2733 21.6862 27.0587 21.4749 26.8088 21.3106C26.6198 21.1944 26.4211 21.0945 26.2147 21.012C25.9799 20.9696 25.7418 20.9479 25.5031 20.947H25.4533C25.4182 20.9476 25.3831 20.9506 25.3484 20.9558H25.3128L25.2256 20.9751H25.1883L25.078 21.005H25.0691L24.9552 21.0419C24.9271 21.074 24.9072 21.1123 24.8973 21.1536C24.8874 21.1949 24.8878 21.2379 24.8983 21.279C24.9244 21.3318 24.9593 21.3799 25.0015 21.4213C25.1934 21.5446 25.3787 21.6777 25.5565 21.8201C25.8168 22.0525 26.0143 22.3453 26.1311 22.6721C26.309 23.1587 26.2271 23.6523 26.2414 24.2074C26.2414 24.4498 26.2627 24.701 26.2627 24.9382C26.2627 26.0607 26.2752 26.932 27.1521 27.791C28.0291 28.65 29.4878 28.7326 30.6174 28.7519H30.6725C30.8522 28.7817 31.0514 28.787 31.2471 28.7888ZM27.885 27.7611C27.4355 27.4896 27.1034 27.0635 26.9529 26.5648C26.8088 26.0734 26.7486 25.5616 26.775 25.0506C26.775 24.8205 26.7626 24.4955 26.7626 24.2583C26.7626 23.6909 26.7964 23.1551 26.6114 22.6422C26.4653 22.2547 26.231 21.9055 25.9265 21.6216C25.8269 21.5355 25.6205 21.4301 25.4711 21.3282L25.7895 21.3985C25.8375 21.3985 25.987 21.4652 26.0154 21.4723C26.1835 21.5217 26.3426 21.597 26.4868 21.6954C26.6639 21.8358 26.8208 21.9995 26.9529 22.182C27.1734 22.4913 27.2971 22.8578 27.3087 23.236V24.9663C27.3087 26.0765 27.3087 26.9408 28.2195 27.8472C28.3218 27.9484 28.4319 28.0418 28.5486 28.1265C28.318 28.0222 28.0961 27.9 27.885 27.7611Z" fill="#404040"/>
<path d="M34.4788 16.6362C33.8408 15.7118 33.0884 14.8697 32.2392 14.1294C31.4149 13.5459 30.5181 13.0695 29.5709 12.7118H29.5442L29.3378 12.6362C29.2192 12.5929 29.0965 12.5508 28.9696 12.5098C28.6823 12.5286 28.3979 12.5775 28.1211 12.6556C28.1057 12.6591 28.0919 12.6675 28.0819 12.6796C28.0719 12.6917 28.0663 12.7067 28.0659 12.7223C28.0657 12.7379 28.0701 12.7533 28.0786 12.7664C28.0872 12.7795 28.0995 12.7899 28.114 12.7961C30.3945 13.6744 31.5525 15.0552 32.9347 17.1052C34.3393 19.1903 35.0824 21.6416 35.0694 24.1459V24.4972C35.0694 24.5332 35.0659 24.5691 35.0587 24.6044H35.6689C35.6745 24.569 35.6775 24.5331 35.6778 24.4972V24.1459C35.6778 21.5759 34.8008 19.0516 33.3901 16.9699C32.2267 15.2431 31.348 14.0064 29.7096 13.1211C31.5632 13.9239 32.6288 15.1395 33.9522 16.9629C35.4128 19.0207 36.1881 21.4767 36.1705 23.9896V24.3286C36.1722 24.3732 36.1647 24.4177 36.1485 24.4593C36.1323 24.501 36.1077 24.539 36.0762 24.571C36.0639 24.5808 36.0508 24.5896 36.0371 24.5974C36.311 24.5974 36.5103 24.5974 36.5707 24.6062C36.6222 24.6105 36.674 24.6105 36.7255 24.6062C36.7535 24.5229 36.7679 24.4357 36.7682 24.3479V23.9966C36.7664 21.4108 36.014 18.7529 34.4788 16.6362Z" fill="#404040"/>
<path d="M25.4244 16.731C20.9328 16.731 18.542 20.5113 18.542 23.2306V26.5788C18.542 28.6201 18.0083 28.8502 18.0083 28.8502L19.3229 28.8379C22.3363 28.8379 22.8166 27.5257 22.8166 25.9622V23.2306C22.7881 22.73 22.8913 21.8165 23.7683 20.8837C24.062 20.5757 24.3958 20.3075 24.7609 20.0862C25.0643 19.8998 25.3854 19.7433 25.7197 19.6189C26.1666 19.4458 26.6304 19.3186 27.1037 19.2395C28.6372 18.9873 30.2121 19.2294 31.5954 19.9298C30.8287 18.7054 29.0285 16.731 25.4244 16.731Z" fill="#201F1F"/>
<path d="M38.439 14.3579C36.614 11.8612 34.0965 9.9392 31.1901 8.8239C28.2836 7.70859 25.1125 7.4476 22.0592 8.07241C19.0059 8.69721 16.2009 10.1811 13.9826 12.3451C11.7643 14.5091 10.2275 17.2607 9.55754 20.268C8.88757 23.2753 9.1131 26.4098 10.2069 29.2934C11.3007 32.1769 13.2161 34.6863 15.7219 36.5188C18.2278 38.3514 21.2171 39.4287 24.3291 39.6209C27.4412 39.8131 30.5431 39.112 33.2607 37.6021C33.7534 37.3245 34.8367 36.6359 35.2334 36.2635C34.9625 35.8446 34.6654 35.4427 34.344 35.0602C34.0765 34.7356 33.7445 34.4686 33.3685 34.2756C32.9925 34.0825 32.5805 33.9675 32.1578 33.9377C31.5722 33.924 30.9914 34.0443 30.4607 34.289C28.6658 35.1884 27.385 35.4379 25.3446 35.4379C22.4841 35.4415 19.718 34.4272 17.5531 32.5808C15.3882 30.7345 13.9695 28.1796 13.5568 25.3844C13.1441 22.5891 13.765 19.7406 15.3059 17.3607C16.8468 14.9807 19.2045 13.2287 21.947 12.4256C22.5626 12.2283 23.1892 12.0664 23.8237 11.9408C27.8564 11.1239 33.7854 11.5982 38.439 14.3579Z" fill="#201F1F"/>
<path d="M31.3499 12.7678C30.5568 12.6345 29.7569 12.5442 28.9538 12.4973C31.3556 13.2579 33.4511 14.7514 34.9388 16.7629C36.4265 18.7743 37.2297 21.2 37.2327 23.6908V24.0421C37.2341 24.1246 37.2172 24.2063 37.1829 24.2815C37.1487 24.3568 37.0981 24.4236 37.0348 24.4773C36.9714 24.531 36.8968 24.5702 36.8163 24.5921C36.7358 24.6141 36.6514 24.6182 36.5691 24.6042C36.281 24.5832 33.3298 24.6042 33.0825 24.6042C32.7944 24.6042 32.6094 24.3337 32.6094 23.9754V23.2446C32.6061 22.6976 32.5258 22.1537 32.371 21.6285C32.1415 21.3659 31.8763 21.1359 31.5829 20.9451C31.3971 20.8233 31.2027 20.7147 31.0012 20.6201C29.8368 20.0812 28.5341 19.9042 27.2656 20.1125C26.4011 20.2618 25.7109 20.4638 25.1078 20.8907L24.9424 21.0663C25.103 21.0059 25.2711 20.9675 25.4423 20.9521C27.8188 20.9521 28.3543 22.6491 28.3543 23.2446V24.9749C28.3543 26.0851 28.3543 27.1391 29.2028 27.9788C30.0513 28.8185 31.0902 28.8044 32.1984 28.8044L38.8087 28.8185C40.2532 28.8185 41.5073 27.7768 41.5073 25.9094V23.6908C41.51 21.0796 40.8605 18.508 39.6164 16.2039C39.4242 16.0686 39.2321 15.9263 39.0204 15.777C36.9107 14.3032 34.2673 13.2615 31.3499 12.7678Z" fill="#201F1F"/>
</svg>
