<svg width="49" height="36" viewBox="0 0 49 36" fill="none" xmlns="http://www.w3.org/2000/svg">
<path d="M3.74902 22.6537L15.6813 22.6472L18.482 12.9646L6.54535 12.9875L3.74902 22.6537Z" fill="#F6C900"/>
<path d="M11.978 35.5662C11.9554 35.5362 11.9402 35.5015 11.9334 35.4646C11.9266 35.4278 11.9284 35.3898 11.9388 35.3538L15.1805 24.1467L3.24926 24.1533L0.00974643 35.3538C-0.000776599 35.3897 -0.00281151 35.4276 0.00380224 35.4645C0.010416 35.5013 0.0254977 35.5361 0.0478584 35.5662C0.069081 35.5931 0.0953389 35.6157 0.125171 35.6326C0.160642 35.6517 0.200288 35.6618 0.240596 35.662H8.71124C8.82014 35.662 8.92903 35.662 9.03792 35.6489L12.0792 35.6435C12.0591 35.635 12.0401 35.624 12.0226 35.6108C12.0058 35.5979 11.9908 35.5829 11.978 35.5662Z" fill="#F6C900"/>
<path d="M23.6403 0.0087313L22.3336 0.00219727H13.2738C12.412 0.0520448 11.5866 0.366733 10.9103 0.903277C10.234 1.43982 9.73985 2.17206 9.49531 2.99997L7.04199 11.4826L18.9776 11.4597L21.4243 2.99997C21.9154 1.3274 22.4839 0.418162 23.6403 0.0087313Z" fill="#F6C900"/>
<path d="M48.9532 0.0947357C48.9325 0.0675741 48.9063 0.0450954 48.8762 0.0287705C48.8462 0.0124457 48.8131 0.00264201 48.779 0H47.1271H40.1352H37.218L36.4917 2.49797L33.8838 11.4706L42.643 11.4543C43.5461 11.449 44.4234 11.1523 45.1443 10.6082C45.8651 10.0641 46.391 9.30181 46.6437 8.43472L48.9914 0.302718C49.0011 0.26742 49.0027 0.230377 48.9961 0.19436C48.9895 0.158344 48.9749 0.124286 48.9532 0.0947357Z" fill="#F6C900"/>
<path d="M22.9292 3.00439C23.1715 2.1853 23.658 1.45965 24.3236 0.924368C24.9892 0.389089 25.8024 0.0696725 26.6544 0.00878906H35.7675L35.0412 2.50675C34.9699 2.67003 34.9092 2.8377 34.8593 3.00874L32.4093 11.4794L20.4966 11.5012L22.9292 3.00439Z" fill="#F6C900"/>
<path d="M26.7708 30.5103L28.61 24.1467H16.6875L13.4392 35.3538C13.4227 35.4108 13.4278 35.4719 13.4535 35.5253C13.4792 35.5788 13.5238 35.6209 13.5786 35.6435L22.6787 35.626L25.4663 35.6206C25.4439 35.6057 25.424 35.5873 25.4075 35.5662C25.3853 35.536 25.3704 35.5012 25.3638 35.4644C25.3572 35.4276 25.3591 35.3898 25.3694 35.3538L26.7708 30.5103Z" fill="#F6C900"/>
<path d="M41.8873 24.4526L39.5385 32.5857C39.2859 33.4526 38.7602 34.2148 38.0395 34.7588C37.3189 35.3029 36.4419 35.5998 35.5389 35.6052L26.9169 35.6205C26.8946 35.6058 26.8751 35.5874 26.8592 35.566C26.8366 35.5361 26.8214 35.5013 26.8146 35.4645C26.8078 35.4276 26.8096 35.3897 26.82 35.3537L28.2214 30.5102L30.0726 24.151L41.6586 24.1455C41.6958 24.1456 41.7325 24.1543 41.7658 24.171C41.7991 24.1876 41.8281 24.2118 41.8505 24.2415C41.8729 24.2713 41.888 24.3059 41.8948 24.3425C41.9016 24.3791 41.8997 24.4168 41.8894 24.4526H41.8873Z" fill="#F6C900"/>
<path d="M40.9563 4.46018L42.3718 5.57632C42.4074 5.60427 42.4359 5.64029 42.4548 5.6814C42.4737 5.7225 42.4826 5.76752 42.4806 5.81273C42.4787 5.85794 42.4661 5.90205 42.4438 5.94141C42.4214 5.98077 42.3901 6.01426 42.3522 6.03911L40.8452 7.02893C40.8013 7.05786 40.7503 7.07412 40.6978 7.07589C40.6452 7.07767 40.5932 7.0649 40.5475 7.03899C40.5018 7.01308 40.4641 6.97505 40.4386 6.92908C40.4131 6.8831 40.4008 6.83099 40.4031 6.77848L40.4935 4.67252C40.4959 4.61998 40.5127 4.5691 40.5421 4.52549C40.5715 4.48187 40.6123 4.4472 40.6601 4.42526C40.7079 4.40333 40.7609 4.39498 40.8131 4.40114C40.8653 4.4073 40.9149 4.42773 40.9563 4.46018Z" fill="black"/>
<path d="M19.6963 28.7067L19.6876 31.0838C19.6873 31.171 19.7577 31.242 19.8449 31.2423L19.9081 31.2425C19.9953 31.2428 20.0662 31.1724 20.0665 31.0852L20.0752 28.7081C20.0756 28.6209 20.0051 28.55 19.9179 28.5496L19.8548 28.5494C19.7676 28.5491 19.6966 28.6195 19.6963 28.7067Z" fill="black"/>
<path d="M19.0008 29.3308L18.9967 30.4534C18.9964 30.5406 19.0668 30.6116 19.154 30.6119L19.2171 30.6121C19.3043 30.6125 19.3753 30.542 19.3756 30.4548L19.3797 29.3322C19.38 29.245 19.3096 29.174 19.2224 29.1737L19.1593 29.1735C19.0721 29.1731 19.0011 29.2436 19.0008 29.3308Z" fill="black"/>
<path d="M20.3884 29.076L20.3824 30.7203C20.3821 30.8075 20.4525 30.8784 20.5397 30.8788L20.6029 30.879C20.6901 30.8793 20.761 30.8089 20.7614 30.7217L20.7674 29.0774C20.7677 28.9902 20.6973 28.9193 20.6101 28.919L20.5469 28.9187C20.4597 28.9184 20.3888 28.9888 20.3884 29.076Z" fill="black"/>
<path d="M21.0842 28.4226L21.0733 31.3768C21.073 31.464 21.1434 31.5349 21.2306 31.5352L21.2938 31.5355C21.381 31.5358 21.452 31.4654 21.4523 31.3782L21.4631 28.424C21.4634 28.3368 21.393 28.2658 21.3058 28.2655L21.2426 28.2653C21.1554 28.2649 21.0845 28.3354 21.0842 28.4226Z" fill="black"/>
<path d="M21.7765 28.8296L21.7686 30.9737C21.7683 31.0609 21.8388 31.1319 21.926 31.1322L21.9891 31.1324C22.0763 31.1327 22.1473 31.0623 22.1476 30.9751L22.1554 28.831C22.1558 28.7438 22.0853 28.6729 21.9981 28.6726L21.935 28.6723C21.8478 28.672 21.7768 28.7424 21.7765 28.8296Z" fill="black"/>
<path d="M22.4686 29.3427L22.4644 30.4654C22.4641 30.5526 22.5346 30.6236 22.6218 30.6239L22.6849 30.6241C22.7721 30.6244 22.8431 30.554 22.8434 30.4668L22.8475 29.3441C22.8478 29.2569 22.7774 29.186 22.6902 29.1857L22.627 29.1854C22.5398 29.1851 22.4689 29.2555 22.4686 29.3427Z" fill="black"/>
<path d="M32.7285 31.6599C32.6086 31.5636 32.5118 31.4416 32.4455 31.3029C32.3791 31.1641 32.3449 31.0122 32.3452 30.8585V28.8984C32.3455 28.6254 32.4542 28.3637 32.6473 28.1707C32.8405 27.9778 33.1023 27.8694 33.3753 27.8694H35.3354C35.6082 27.87 35.8696 27.9787 36.0624 28.1719C36.2551 28.365 36.3633 28.6267 36.3633 28.8995V30.8595C36.363 31.1326 36.2544 31.3943 36.0612 31.5872C35.8681 31.7802 35.6062 31.8886 35.3332 31.8886H33.3732C33.1384 31.8886 32.9108 31.8079 32.7285 31.6599ZM35.8025 28.3224C35.6699 28.2153 35.5048 28.1565 35.3343 28.1558H33.3742C33.276 28.1556 33.1787 28.1748 33.0879 28.2123C32.9971 28.2498 32.9145 28.3047 32.8449 28.3741C32.7754 28.4435 32.7202 28.5259 32.6824 28.6166C32.6447 28.7073 32.6252 28.8045 32.6251 28.9028V30.8628C32.6254 31.061 32.7041 31.2511 32.844 31.3915C32.984 31.5318 33.1738 31.6111 33.3721 31.612H35.3321C35.4303 31.6121 35.5276 31.5929 35.6185 31.5555C35.7093 31.518 35.7918 31.463 35.8614 31.3936C35.931 31.3243 35.9862 31.2419 36.0239 31.1512C36.0616 31.0605 36.0811 30.9632 36.0813 30.865V28.9049C36.0812 28.7934 36.0561 28.6832 36.0079 28.5826C35.9596 28.4819 35.8895 28.3934 35.8025 28.3235V28.3224Z" fill="black"/>
<path d="M33.0298 28.6047H33.5427V28.6516H33.0766L33.0755 29.1165H33.0298V28.6047Z" fill="black"/>
<path d="M33.5386 28.6111V28.6448H33.0726V29.1109H33.0399V28.6111H33.5386ZM33.5528 28.598H33.0269V29.124H33.0878V28.6579H33.5539V28.5969L33.5528 28.598Z" fill="black"/>
<path d="M35.6326 28.6525H35.1665L35.1676 28.6057L35.6794 28.6068V29.1197H35.6326V28.6525Z" fill="black"/>
<path d="M35.6728 28.6112V29.1099H35.6401V28.6439H35.1719V28.6112H35.6706M35.6847 28.5981H35.1577V28.658H35.6238V29.1241H35.6847V28.6003V28.5981Z" fill="black"/>
<path d="M35.1641 31.1146H35.6301L35.6312 30.6497H35.6769V31.1625L35.1641 31.1614V31.1146Z" fill="black"/>
<path d="M35.6706 30.6562V31.155H35.1719V31.1212H35.6379V30.6552H35.6706M35.6847 30.6421H35.6238V31.1081H35.1577V31.1691H35.6837V30.6432L35.6847 30.6421Z" fill="black"/>
<path d="M33.0278 30.6465H33.0757L33.0747 31.1136H33.5407L33.5396 31.1594H33.0278V30.6465Z" fill="black"/>
<path d="M33.0679 30.6541V31.1158H33.5383V31.1474H33.0395V30.6487H33.0722M33.0864 30.6345H33.0254V31.1605H33.5513V31.1006H33.0864V30.6345Z" fill="black"/>
<path d="M16.7747 6.48454L16.7899 4.75753C16.7901 4.72705 16.7828 4.697 16.7686 4.67001C16.7545 4.64301 16.734 4.6199 16.7088 4.6027C16.6836 4.5855 16.6546 4.57474 16.6244 4.57135C16.5941 4.56797 16.5634 4.57207 16.5351 4.5833L16.007 4.79455C15.9796 4.80506 15.9552 4.82228 15.9362 4.84464C15.8798 4.55806 15.7258 4.29987 15.5005 4.11404C15.2751 3.92821 14.9924 3.82622 14.7003 3.82542L13.6691 3.81671C13.5032 3.81513 13.3387 3.84624 13.1849 3.90828C13.0311 3.97032 12.8911 4.06206 12.7728 4.17825C12.6544 4.29445 12.5602 4.43282 12.4954 4.58547C12.4306 4.73812 12.3965 4.90204 12.395 5.06787L12.3863 6.09907C12.3842 6.26553 12.415 6.43078 12.477 6.58529C12.5389 6.7398 12.6309 6.88052 12.7475 6.99935C12.8641 7.11817 13.003 7.21276 13.1563 7.27765C13.3097 7.34254 13.4743 7.37646 13.6408 7.37745L14.6731 7.38616C14.9637 7.38881 15.2463 7.29098 15.4731 7.10923C15.6999 6.92747 15.857 6.67295 15.9177 6.38872C15.9366 6.41141 15.961 6.429 15.9885 6.4399L16.5166 6.65768C16.545 6.66957 16.5759 6.67422 16.6065 6.67123C16.6372 6.66824 16.6666 6.65769 16.6922 6.64054C16.7178 6.62338 16.7387 6.60015 16.7531 6.57293C16.7675 6.5457 16.7749 6.51534 16.7747 6.48454ZM14.1613 6.17856C14.0464 6.17769 13.9344 6.14278 13.8395 6.07824C13.7445 6.0137 13.6708 5.92244 13.6277 5.81599C13.5846 5.70955 13.574 5.59272 13.5974 5.48028C13.6207 5.36784 13.6768 5.26484 13.7587 5.18433C13.8406 5.10382 13.9445 5.04941 14.0574 5.02798C14.1702 5.00656 14.2868 5.01908 14.3925 5.06397C14.4982 5.10886 14.5882 5.18409 14.6511 5.28015C14.7141 5.37621 14.7471 5.48878 14.746 5.60361C14.7449 5.7566 14.6834 5.90294 14.5749 6.01081C14.4664 6.11869 14.3197 6.17936 14.1667 6.17965L14.1613 6.17856Z" fill="black"/>
<path d="M11.0338 17.9942L11.048 16.1431L11.3746 16.2334C11.7231 16.3293 12.0726 16.4262 12.4222 16.5209C12.4581 16.5307 12.4668 16.546 12.4668 16.5808C12.4668 16.7703 12.4614 16.9598 12.4668 17.1492C12.4668 17.1873 12.4614 17.1971 12.4211 17.1852C12.1042 17.0948 11.7863 17.0077 11.4683 16.9162C11.4302 16.9053 11.4247 16.9162 11.4247 16.951C11.4247 17.5231 11.4207 18.0948 11.4128 18.6661C11.4193 18.8252 11.3811 18.983 11.3026 19.1217C11.2241 19.2603 11.1084 19.3742 10.9686 19.4504C10.8287 19.5267 10.6703 19.5624 10.5113 19.5533C10.3523 19.5443 10.1989 19.4909 10.0686 19.3993C9.93833 19.3076 9.83628 19.1814 9.774 19.0347C9.71172 18.8881 9.69171 18.727 9.71622 18.5696C9.74074 18.4122 9.8088 18.2648 9.91271 18.1441C10.0166 18.0233 10.1522 17.9341 10.3042 17.8864C10.4173 17.8494 10.5369 17.8371 10.6551 17.8505C10.7733 17.8638 10.8872 17.9024 10.9892 17.9637L11.0338 17.9942Z" fill="black"/>
<path d="M9.72193 31.7551H9.67946H5.20403C5.14039 31.7551 5.07935 31.7299 5.03425 31.685C4.98915 31.6401 4.96367 31.5792 4.96338 31.5155V28.2858C4.96367 28.2221 4.98911 28.161 5.03418 28.116C5.07925 28.0709 5.14029 28.0455 5.20403 28.0452H9.67837C9.71005 28.0449 9.74148 28.0509 9.77081 28.0629C9.80013 28.0749 9.82678 28.0926 9.84918 28.115C9.87159 28.1374 9.8893 28.1641 9.90129 28.1934C9.91328 28.2227 9.91931 28.2541 9.91902 28.2858V31.5155C9.91945 31.5471 9.9135 31.5784 9.90152 31.6076C9.88955 31.6368 9.87179 31.6633 9.84933 31.6854C9.81505 31.7212 9.77056 31.7455 9.72193 31.7551ZM5.25738 31.4731H9.63481V28.3403H5.25738V31.4731Z" fill="black"/>
<path d="M5.48614 28.9849C5.47054 28.9819 5.45661 28.9733 5.44711 28.9606C5.43762 28.9478 5.43326 28.932 5.43491 28.9162C5.43656 28.9004 5.44409 28.8858 5.456 28.8754C5.46792 28.8649 5.48334 28.8593 5.49921 28.8596H7.94926C7.9576 28.8595 7.96588 28.861 7.97361 28.8641C7.98133 28.8673 7.98836 28.8719 7.99425 28.8778C8.00014 28.8837 8.00479 28.8907 8.00791 28.8985C8.01103 28.9062 8.01257 28.9145 8.01242 28.9228C8.01242 28.9395 8.00577 28.9556 7.99392 28.9675C7.98208 28.9793 7.96601 28.986 7.94926 28.986H5.49921L5.48614 28.9849Z" fill="black"/>
<path d="M5.5286 29.4823H5.51553C5.50121 29.4793 5.48833 29.4715 5.47903 29.4602C5.46972 29.449 5.46455 29.4348 5.46436 29.4202C5.46464 29.4033 5.47149 29.3871 5.48348 29.3751C5.49547 29.3631 5.51165 29.3562 5.5286 29.356H9.01857C9.03542 29.356 9.0516 29.3626 9.06361 29.3744C9.07563 29.3862 9.08253 29.4023 9.08281 29.4191C9.08296 29.4275 9.08143 29.4358 9.07832 29.4436C9.07521 29.4514 9.07058 29.4585 9.0647 29.4645C9.05882 29.4705 9.05181 29.4752 9.04408 29.4784C9.03634 29.4817 9.02804 29.4834 9.01965 29.4834L5.5286 29.4823Z" fill="black"/>
<path d="M5.54363 29.9768H5.53056C5.51644 29.9736 5.50381 29.9657 5.49472 29.9545C5.48562 29.9432 5.4806 29.9292 5.48047 29.9147C5.48047 29.898 5.48712 29.8819 5.49897 29.8701C5.51081 29.8582 5.52688 29.8516 5.54363 29.8516H8.76463C8.78009 29.8536 8.79429 29.8612 8.80457 29.8729C8.81486 29.8846 8.82053 29.8997 8.82053 29.9153C8.82053 29.9309 8.81486 29.9459 8.80457 29.9576C8.79429 29.9694 8.78009 29.9769 8.76463 29.979L5.54363 29.9768Z" fill="black"/>
<path d="M8.88221 31.0222H5.52509H5.51202C5.49642 31.0193 5.48249 31.0106 5.47299 30.9979C5.4635 30.9852 5.45914 30.9694 5.46079 30.9536C5.46244 30.9378 5.46997 30.9232 5.48188 30.9127C5.4938 30.9022 5.50922 30.8966 5.52509 30.897H8.88221C8.89897 30.8973 8.915 30.904 8.92695 30.9157C8.93891 30.9275 8.94589 30.9434 8.94645 30.9601C8.94589 30.9768 8.93887 30.9926 8.92688 31.0042C8.91489 31.0158 8.89887 31.0222 8.88221 31.0222Z" fill="black"/>
<path d="M9.41051 30.4679H5.53289H5.51983C5.5057 30.4647 5.49307 30.4568 5.48398 30.4455C5.47489 30.4343 5.46987 30.4203 5.46974 30.4058C5.46959 30.3974 5.47112 30.3891 5.47423 30.3813C5.47734 30.3735 5.48197 30.3664 5.48784 30.3604C5.49372 30.3545 5.50073 30.3497 5.50847 30.3465C5.5162 30.3432 5.52451 30.3416 5.53289 30.3416H9.41051C9.42726 30.3416 9.44332 30.3482 9.45517 30.36C9.46701 30.3719 9.47367 30.388 9.47367 30.4047C9.47367 30.4215 9.46701 30.4375 9.45517 30.4494C9.44332 30.4612 9.42726 30.4679 9.41051 30.4679Z" fill="black"/>
<path d="M28.5612 3.75244H28.0026L27.6934 4.66713L28.252 4.66822L28.5612 3.75244Z" fill="black"/>
<path d="M26.8066 4.66517H27.3653L27.6756 3.75049H27.117L26.8066 4.66517Z" fill="black"/>
<path d="M29.3952 3.74707H28.8366L28.5273 4.66176H29.086L29.3952 3.74707Z" fill="black"/>
<path d="M26.4911 4.66285L26.8004 3.74707H26.3757C26.3124 3.74707 26.2518 3.77219 26.2071 3.81692C26.1623 3.86164 26.1372 3.92229 26.1372 3.98554V4.66176L26.4911 4.66285Z" fill="black"/>
<path d="M29.8797 3.74902H29.675L29.3657 4.66371H30.1182V3.9875C30.1182 3.95618 30.112 3.92517 30.1 3.89624C30.088 3.8673 30.0705 3.84101 30.0483 3.81887C30.0262 3.79673 29.9999 3.77916 29.9709 3.76718C29.942 3.75519 29.911 3.74902 29.8797 3.74902Z" fill="black"/>
<path d="M29.443 5.57418L29.4354 7.05074H26.822L26.8296 5.57745H29.443M30.129 4.8947H26.1479L26.1338 7.48631C26.134 7.52959 26.1456 7.57204 26.1675 7.60936C26.1888 7.64464 26.2188 7.67381 26.2547 7.69404C26.2906 7.71427 26.3311 7.72486 26.3723 7.72478H29.8764C29.9396 7.72478 30.0003 7.69966 30.045 7.65494C30.0897 7.61021 30.1149 7.54956 30.1149 7.48631L30.1279 4.88599L30.129 4.8947Z" fill="black"/>
</svg>
