<svg width="43" height="40" viewBox="0 0 43 40" fill="none" xmlns="http://www.w3.org/2000/svg">
<path d="M25.6556 27.3117C25.5653 27.1308 25.4746 27.1308 25.3832 27.3117L24.5289 28.7844L24.0571 29.5971L22.7368 31.8735H28.2439L26.9535 29.5971L26.4906 28.7844L25.6556 27.3117Z" fill="#201F1F"/>
<path d="M9.61246 4.68066C9.10688 4.68144 8.615 4.84453 8.20985 5.14586C7.8047 5.44729 7.50789 5.87072 7.36348 6.35359L0.915719 28.6714C0.806366 29.0442 0.785671 29.4373 0.855274 29.8194C0.924879 30.2016 1.08287 30.5622 1.31672 30.873C1.55057 31.1837 1.85385 31.4358 2.20252 31.6095C2.55119 31.7831 2.93565 31.8734 3.32544 31.8733H15.8429L17.1736 29.5968L17.6469 28.7841L18.7959 26.8191L19.1174 26.266L19.2662 26.0064L20.4421 23.9969L12.2023 24.0015C12.1205 24.0021 12.0396 23.9836 11.9663 23.9474C11.893 23.9113 11.8292 23.8585 11.7801 23.7932C11.731 23.728 11.6979 23.6522 11.6836 23.572C11.6693 23.4916 11.6742 23.4092 11.6977 23.3311L14.7966 12.7898C14.9145 12.3927 15.1578 12.044 15.4901 11.7953C15.8226 11.5466 16.2265 11.4112 16.6422 11.4092L28.8709 11.3869L29.9128 9.54056L30.3742 8.72785L31.3372 7.02829L31.7971 6.21558L32.6678 4.68221L17.1587 4.68961V4.68221L9.61246 4.68066Z" fill="#201F1F"/>
<path d="M34.2083 13.9748L41.9182 0.627727C42.0388 0.446798 42.0536 0.295528 41.9629 0.18282C41.908 0.119726 41.839 0.070444 41.7614 0.0390075C41.6838 0.00755996 41.5998 -0.00515822 41.5163 0.00189151H37.5825C36.8982 0.00214566 36.2262 0.183184 35.635 0.526555C35.0438 0.869925 34.5546 1.36334 34.2172 1.95651L33.1307 3.87404H9.61241C8.92945 3.87559 8.26525 4.09691 7.71867 4.50487C7.17211 4.91293 6.7724 5.48597 6.57905 6.13857L0.132778 28.4505C-0.011627 28.9443 -0.0386818 29.4648 0.0537564 29.9707C0.146195 30.4767 0.355587 30.9544 0.665354 31.3658C0.97512 31.7772 1.37675 32.111 1.83846 32.3409C2.30015 32.5709 2.80925 32.6905 3.3254 32.6905H15.368L11.4655 39.364C11.3434 39.545 11.33 39.6963 11.4194 39.8164C11.4747 39.8808 11.5449 39.931 11.624 39.9625C11.703 39.994 11.7885 40.0059 11.8733 39.9973H15.7922C16.4719 39.9976 17.1396 39.8197 17.7283 39.4813C18.3169 39.1428 18.8058 38.6558 19.1457 38.0694L22.2713 32.689H28.7056L30.139 35.2101C30.2084 35.3266 30.3084 35.4219 30.4284 35.4857C30.5483 35.5494 30.6835 35.5794 30.8192 35.572H36.5332C36.8651 35.572 37.0318 35.4519 37.0318 35.2101L36.941 34.9387L29.557 22.296C29.5258 22.2083 29.5258 22.1124 29.557 22.0247L34.2083 13.9748ZM21.4393 22.296L20.9183 23.1859H12.5833L15.572 13.0154C15.6228 12.8429 15.7153 12.6855 15.8413 12.5571L15.8563 12.6031L21.4303 22.0217C21.4613 22.0604 21.4788 22.108 21.4804 22.1574C21.482 22.2069 21.4676 22.2555 21.4393 22.296ZM22.6122 12.2115L28.408 12.1997L28.0135 12.8967L25.6559 17.0492C25.5656 17.2301 25.4748 17.2301 25.3835 17.0492L22.7044 12.3287C22.6775 12.2869 22.6465 12.2476 22.6122 12.2115ZM22.7371 31.8734L24.0574 29.5969L24.5292 28.7842L25.3835 27.3116C25.4738 27.1306 25.5646 27.1306 25.6559 27.3116L26.491 28.7842L26.9509 29.5969L28.2413 31.8734H22.7371ZM28.8724 11.387L16.6436 11.4093C16.2279 11.4113 15.824 11.5468 15.4916 11.7954C15.1592 12.0441 14.916 12.3928 14.798 12.79L11.6962 23.3312C11.6569 23.4639 11.6719 23.6068 11.738 23.7285C11.8041 23.8503 11.9159 23.9409 12.0489 23.9808C12.0975 23.9939 12.1475 24.0009 12.1978 24.0016H20.4421L19.2662 26.011L19.1174 26.2705L18.7959 26.8193L17.6468 28.7828L17.1735 29.5955L15.8429 31.8719H3.3254C2.93583 31.8714 2.55168 31.7807 2.20334 31.6069C1.85499 31.4331 1.55199 31.1809 1.31827 30.8704C1.08454 30.5598 0.926498 30.1994 0.856628 29.8175C0.786759 29.4356 0.806974 29.0428 0.915679 28.6701L7.36344 6.3536C7.50785 5.87084 7.80466 5.44741 8.20981 5.14597C8.61496 4.84465 9.10682 4.68155 9.61241 4.68078H17.163V4.68818L32.6722 4.68078L31.8016 6.21426L31.3416 7.02697L30.3771 8.72642L29.9157 9.53913L28.8724 11.387Z" fill="#F6C900"/>
<path d="M5.68754 28.7841C5.51342 28.7854 5.34145 28.7458 5.18543 28.6688C5.02939 28.5918 4.89363 28.4795 4.78902 28.3408C4.68441 28.202 4.61385 28.0409 4.58301 27.8702C4.55217 27.6994 4.5619 27.5238 4.61143 27.3575L10.3269 8.22666C10.428 7.88456 10.6374 7.58412 10.9239 7.3703C11.2104 7.15649 11.5586 7.04069 11.9166 7.04025H31.3402L31.8001 6.22754H11.9224C11.3873 6.22909 10.8671 6.40334 10.4397 6.72423C10.0123 7.045 9.70065 7.49505 9.55144 8.0071L3.83597 27.1381C3.69165 27.6286 3.74871 28.156 3.99461 28.6046C4.24049 29.0531 4.65509 29.386 5.14724 29.5301C5.3226 29.5822 5.50458 29.6087 5.68754 29.6088H17.1735L17.6468 28.7961L5.68754 28.7841Z" fill="white"/>
<path d="M24.5294 28.7842L24.0576 29.5968H26.9511L26.4911 28.7842H24.5294Z" fill="white"/>
<path d="M14.5392 8.72632C14.0281 8.72809 13.5313 8.89461 13.1231 9.2009C12.7147 9.5072 12.4169 9.93693 12.2739 10.4259L7.83992 25.5125C7.76455 25.7733 7.79621 26.0533 7.92796 26.2908C8.0597 26.5283 8.28075 26.7039 8.54246 26.779C8.63484 26.8058 8.73055 26.8193 8.82674 26.8192H18.7991L19.1206 26.2659L19.2694 26.0064H8.82674C8.7938 26.0064 8.76131 25.9988 8.73185 25.9842C8.70239 25.9695 8.67678 25.9482 8.65706 25.9219C8.6371 25.8962 8.62358 25.866 8.61762 25.8341C8.61167 25.8021 8.61346 25.7691 8.62283 25.7379L13.0567 10.6543C13.1501 10.3331 13.3459 10.0509 13.6143 9.85019C13.8828 9.64952 14.2095 9.54135 14.5452 9.54201H29.9145L30.3758 8.7293L14.5392 8.72632Z" fill="white"/>
<path d="M36.3086 3.22607C36.8552 3.22607 37.2984 2.78454 37.2984 2.23987C37.2984 1.69521 36.8552 1.25366 36.3086 1.25366C35.7619 1.25366 35.3188 1.69521 35.3188 2.23987C35.3188 2.78454 35.7619 3.22607 36.3086 3.22607Z" fill="#201F1F"/>
<path d="M17.023 36.585C16.827 36.585 16.6353 36.6429 16.4723 36.7515C16.3093 36.86 16.1822 37.0142 16.1072 37.1947C16.0322 37.3751 16.0125 37.5738 16.0508 37.7654C16.0891 37.957 16.1834 38.1329 16.3222 38.271C16.4608 38.4092 16.6373 38.5033 16.8296 38.5414C17.0219 38.5796 17.2212 38.5599 17.4024 38.4852C17.5835 38.4104 17.7383 38.2839 17.8472 38.1214C17.9561 37.959 18.0144 37.7681 18.0144 37.5727C18.0144 37.3112 17.91 37.0603 17.7245 36.8754C17.5388 36.6904 17.2871 36.5865 17.0245 36.5865L17.023 36.585Z" fill="#201F1F"/>
</svg>
