<svg width="686" height="401" viewBox="0 0 686 401" fill="none" xmlns="http://www.w3.org/2000/svg">
<g clip-path="url(#clip0_59_2114)">
<path d="M0 12C0 5.37258 5.37258 0 12 0H674C680.627 0 686 5.37258 686 12V389C686 395.627 680.627 401 674 401H12C5.37258 401 0 395.627 0 389V12Z" fill="#FAFAFA" fill-opacity="0.02"/>
<g opacity="0.5">
<g opacity="0.7" filter="url(#filter0_f_59_2114)">
<circle cx="180" cy="180" r="180" transform="matrix(-1 0 0 1 523 141)" fill="#F6C900" fill-opacity="0.6"/>
</g>
</g>
<g opacity="0.5">
<g opacity="0.7" filter="url(#filter1_f_59_2114)">
<circle cx="180" cy="180" r="180" transform="matrix(-1 0 0 1 751 71)" fill="#F6C900" fill-opacity="0.6"/>
</g>
</g>
</g>
<path d="M12 0.5H674C680.351 0.5 685.5 5.64873 685.5 12V389C685.5 395.351 680.351 400.5 674 400.5H12C5.64873 400.5 0.5 395.351 0.5 389V12C0.5 5.64872 5.64873 0.5 12 0.5Z" stroke="url(#paint0_linear_59_2114)"/>
<defs>
<filter id="filter0_f_59_2114" x="-237" y="-259" width="1160" height="1160" filterUnits="userSpaceOnUse" color-interpolation-filters="sRGB">
<feFlood flood-opacity="0" result="BackgroundImageFix"/>
<feBlend mode="normal" in="SourceGraphic" in2="BackgroundImageFix" result="shape"/>
<feGaussianBlur stdDeviation="200" result="effect1_foregroundBlur_59_2114"/>
</filter>
<filter id="filter1_f_59_2114" x="-9" y="-329" width="1160" height="1160" filterUnits="userSpaceOnUse" color-interpolation-filters="sRGB">
<feFlood flood-opacity="0" result="BackgroundImageFix"/>
<feBlend mode="normal" in="SourceGraphic" in2="BackgroundImageFix" result="shape"/>
<feGaussianBlur stdDeviation="200" result="effect1_foregroundBlur_59_2114"/>
</filter>
<linearGradient id="paint0_linear_59_2114" x1="343" y1="0" x2="343" y2="401" gradientUnits="userSpaceOnUse">
<stop stop-color="#FAFAFA" stop-opacity="0.2"/>
<stop offset="0.0001" stop-color="#FAFAFA" stop-opacity="0.05"/>
</linearGradient>
<clipPath id="clip0_59_2114">
<path d="M0 12C0 5.37258 5.37258 0 12 0H674C680.627 0 686 5.37258 686 12V389C686 395.627 680.627 401 674 401H12C5.37258 401 0 395.627 0 389V12Z" fill="white"/>
</clipPath>
</defs>
</svg>
