<svg width="43" height="35" viewBox="0 0 43 35" fill="none" xmlns="http://www.w3.org/2000/svg">
<path d="M42.9634 0.0445597C42.9634 0.0445597 42.9085 0 42.8718 0H38.6698C37.7543 0 36.9395 0.597106 36.6832 1.45267L31.9136 17.4409L28.1326 4.74122C28.096 4.66101 28.0136 4.66101 28.0136 4.66101H23.7933C22.8778 4.66101 22.063 5.25812 21.8067 6.11368L17.7877 19.6155L15.1512 10.7747C14.8948 9.92805 14.0892 9.33094 13.1737 9.32202H8.95337C8.0379 9.32202 7.22312 9.91914 6.96679 10.7747L0 34.1956C0 34.1956 -1.70521e-08 34.2669 0.0183095 34.2937C0.0366191 34.3204 0.0732381 34.3382 0.109857 34.3382H4.3119C5.22738 34.3382 6.04215 33.7411 6.29849 32.8855L11.0681 16.8973L14.8491 29.597C14.8491 29.597 14.8765 29.6772 14.9681 29.6772H19.1701C19.6919 29.6772 20.1954 29.4811 20.5799 29.1336C20.8546 28.884 21.056 28.5721 21.1567 28.2245L25.194 14.7049L27.8397 23.5635C28.096 24.4102 28.9016 25.0073 29.8171 25.0162H34.0466C34.9621 25.0162 35.7769 24.4191 36.0332 23.5635L43 0.142593C43 0.142593 43 0.0712959 42.9817 0.0445597H42.9634ZM4.22035 33.1262C3.726 33.1262 3.33234 32.743 3.33234 32.2617C3.33234 31.7805 3.726 31.3972 4.22035 31.3972C4.71471 31.3972 5.10837 31.7805 5.10837 32.2617C5.10837 32.743 4.71471 33.1262 4.22035 33.1262ZM16.1948 24.9984L12.423 12.37L13.1829 9.83001L16.9547 22.4584L16.1948 24.9984ZM29.808 24.5082L26.027 11.8709L26.7869 9.33094L30.5678 21.9683L29.808 24.5082ZM38.7613 2.94098C38.267 2.94098 37.8733 2.55776 37.8733 2.07651C37.8733 1.59526 38.267 1.21204 38.7613 1.21204C39.2557 1.21204 39.6493 1.59526 39.6493 2.07651C39.6493 2.55776 39.2557 2.94098 38.7613 2.94098Z" fill="#F6C900"/>
</svg>
